<svg width="800" height="800" version="1.1" xmlns="http://www.w3.org/2000/svg" xmlns:xlink="http://www.w3.org/1999/xlink"><defs><linearGradient id="linearGradient5414" x1="263.81" x2="684.45" y1="517.16" y2="-16.203" gradientUnits="userSpaceOnUse"><stop stop-color="#f90" offset="0"/><stop stop-color="#ffff06" offset="1"/></linearGradient><linearGradient id="linearGradient5416" x1="237.14" x2="548.71" y1="836.42" y2="337.85" gradientUnits="userSpaceOnUse"><stop stop-color="#ff3b00" offset="0"/><stop stop-color="#f00" stop-opacity="0" offset="1"/></linearGradient></defs><g transform="translate(0 -252.36)"><g aria-label="(   ))"><path d="m107.67 1038.5q-1.9775 0-5.4932.2197-3.2959.2197-4.834.2197-43.066 0-62.183-25.708-13.403-18.237-13.403-46.143v-144.14q0-28.125 13.403-46.143 19.116-25.708 62.183-25.708 1.5381 0 4.834.21973 3.5156.21972 5.4932.21972v38.672q-22.412 0-32.08 7.4707-9.4482 7.4707-9.4482 25.269v144.14q0 17.798 9.4482 25.269 9.668 7.4707 32.08 7.4707z"/><path d="m620.51 967.07q0 27.905-13.403 46.143-19.116 25.708-62.183 25.708-1.5381 0-5.0537-.2197-3.5156-.2197-5.2734-.2197v-38.672q22.412 0 31.86-7.4707 9.4482-7.4707 9.4482-25.269v-144.14q0-17.798-9.4482-25.269-9.4482-7.4707-31.86-7.4707v-38.672q1.7578 0 5.2734-.21972 3.5156-.21973 5.0537-.21973 43.066 0 62.183 25.708 13.403 18.018 13.403 46.143z"/><path d="m757.84 967.07q0 27.905-13.403 46.143-19.116 25.708-62.183 25.708-1.5381 0-5.0537-.2197-3.5156-.2197-5.2734-.2197v-38.672q22.412 0 31.86-7.4707 9.4482-7.4707 9.4482-25.269v-144.14q0-17.798-9.4482-25.269-9.4482-7.4707-31.86-7.4707v-38.672q1.7578 0 5.2734-.21972 3.5156-.21973 5.0537-.21973 43.066 0 62.183 25.708 13.403 18.018 13.403 46.143z"/></g><g transform="translate(75.714 11.429)"><g transform="translate(-53.538)" stroke="#000"><path transform="translate(0 252.36)" d="m244.46 648.48c40.152-5.1433 78.433-23.923 107.08-52.528 10.894-10.88 20.421-23.128 28.284-36.365l-45.457 10.102c22.772-10.606 43.955-24.614 62.629-41.416 14.396-12.952 27.303-27.557 38.386-43.437l-64.65 15.152c50.538-21.266 94.646-57.548 125.26-103.04 5.4836-8.1479 10.543-16.581 15.152-25.254l-54.548 8.0812c59.613-24.504 110.19-70.351 140.41-127.28 7.722-14.546 14.153-29.778 19.193-45.457l-83.843 10.102c31.435-24.762 58.562-54.979 79.802-88.893 23.338-37.265 39.542-78.981 47.477-122.23-15.249 1.1768-30.432 3.2013-45.457 6.0609-66.677 12.691-130.1 42.125-182.84 84.853l25.254-46.467c-11.585 4.7363-22.753 10.49-33.335 17.173-49.288 31.127-84.866 83.183-95.964 140.41l-10.102-41.416c-12.099 10.098-22.978 21.657-32.325 34.345-30.204 40.999-43.556 94.039-36.365 144.45l-12.122-50.508c-25.761 40.111-41.203 86.79-44.447 134.35-1.8441 27.042.20377 54.347 6.0609 80.812l-21.213-53.538c-8.6656 22.778-12.479 47.389-11.112 71.721 2.676 47.636 25.928 93.764 62.629 124.25l16.162-4.0406z" fill="url(#linearGradient5414)" stroke-linecap="round" stroke-linejoin="round" stroke-width="5.2"/><path d="m245.1 867.5c16.839 1.3105 34.1-3.8311 47.477-14.142 9.2203-7.1069 16.595-16.588 21.213-27.274l-34.345 6.0609c15.47-11.981 30.007-25.166 43.437-39.396 7.0462-7.4658 13.788-15.219 20.203-23.234l-45.457 2.0203c32.892-17.629 62.255-41.81 85.863-70.711 9.3459-11.441 17.798-23.612 25.254-36.365l-50.508 1e-5c30.902-22.101 59.406-47.551 84.853-75.761 17.7-19.623 33.924-40.578 48.487-62.629l-43.437-6.0609c38.098-24.509 64.644-66.224 70.711-111.12 1.4462-10.702 1.7853-21.553 1.0102-32.325-8.5851 1.6938-17.037 4.0605-25.254 7.0711-30.923 11.33-58.356 31.995-77.782 58.589l-15.152-26.264c-6.795 5.9831-13.21 12.398-19.193 19.193-29.799 33.843-48.482 77.317-52.528 122.23l-14.142-27.274c-4.9908 4.426-9.7161 9.1514-14.142 14.142-32.022 36.108-47.198 86.569-40.406 134.35l-24.244-29.294c-6.1031 9.528-11.192 19.705-15.152 30.305-14.448 38.666-13.151 82.959 3.5355 120.71l-28.789-14.647c.15663 5.245.6632 10.48 1.5152 15.657 4.0406 24.555 16.076 47.728 33.84 65.155l13.132 1.0102z" fill="url(#linearGradient5416)" stroke-linejoin="round" stroke-width="2.6"/><path d="m212.61 1023.3c1.8663-49.574 7.5443-99.004 16.967-147.71 14.274-73.78 37.332-146.28 73.449-212.18 23.029-42.018 51.154-81.011 79.992-119.28 30.566-40.558 62.024-80.443 94.345-119.62-9.6616 14.073-19.328 28.142-28.999 42.208-20.916 30.42-41.853 60.824-62.814 91.213-25.416 36.848-50.88 73.82-71.67 113.46-33.824 64.495-54.867 135.16-67.318 206.92-5.2183 30.072-8.9604 60.401-11.208 90.84l7.3446 18.631-30.089 35.514z" stroke-width="1px"/></g></g><g stroke-width="1px" aria-label="3"><path d="m792.13 669.36q0 30.054-24.258 49.159-23.399 18.462-57.961 18.462-30.483 0-54.526-12.666l13.095-40.787q29.195 9.6601 43.149 9.6601 13.524 0 22.54-6.0107 10.089-6.4401 10.089-17.388 0-12.451-11.377-19.75-9.8748-6.6548-24.258-6.6548-8.3721 0-12.451.85868v-31.556q39.285 0 39.285-23.828 0-9.4455-9.8748-15.242-8.5868-5.1521-20.608-5.3667-17.818-.21467-34.132 9.6601v-43.149q20.179-8.3721 43.793-8.3721 26.619 0 45.295 12.451 22.97 14.812 22.97 42.505 0 27.478-22.111 38.855 14.168 6.2254 22.755 19.75t8.5868 29.41z"/></g></g></svg>
